<svg width="215" height="215" viewBox="0 0 215 215" fill="none" xmlns="http://www.w3.org/2000/svg">
<path d="M107.653 7C52.0587 7 7 52.0588 7 107.653C7 163.248 52.0587 208.306 107.653 208.306C163.248 208.306 208.306 163.248 208.306 107.653C208.306 52.0588 163.248 7 107.653 7ZM107.653 177.201C69.2419 177.201 38.0739 146.064 38.0739 107.622C38.0739 69.1792 69.2105 38.0425 107.653 38.0425C146.096 38.0425 177.232 69.1792 177.232 107.622C177.232 146.064 146.096 177.201 107.653 177.201Z" stroke="#EB0028" stroke-width="12.4797" stroke-miterlimit="10"/>
<path d="M107.715 109.879L210.469 7.125" stroke="#EB0028" stroke-width="12.4797" stroke-miterlimit="10"/>
<path d="M107.655 137.818C124.332 137.818 137.851 124.299 137.851 107.622C137.851 90.945 124.332 77.4258 107.655 77.4258C90.9782 77.4258 77.459 90.945 77.459 107.622C77.459 124.299 90.9782 137.818 107.655 137.818Z" stroke="#EB0028" stroke-width="12.4797" stroke-miterlimit="10"/>
</svg>
