<svg width="338" height="338" viewBox="0 0 338 338" fill="none" xmlns="http://www.w3.org/2000/svg">
<path d="M173.62 335.434C207.419 256.436 181.505 219.824 173.721 211.236C172.566 209.931 170.908 209.228 169.151 209.228C167.393 209.228 165.736 209.981 164.581 211.286C156.947 219.975 131.635 257.038 166.74 335.484C168.096 338.447 172.315 338.447 173.62 335.434Z" fill="#EB0028"/>
<path d="M54.4472 290.08C134.199 258.14 141.782 213.895 142.334 202.344C142.435 200.586 141.782 198.929 140.526 197.673C139.271 196.468 137.563 195.815 135.856 195.915C124.305 196.669 80.2107 205.006 49.5757 285.259C48.4206 288.323 51.4339 291.286 54.4472 290.08Z" fill="#EB0028"/>
<path d="M2.26622 173.669C81.2643 207.468 117.876 181.554 126.463 173.77C127.769 172.614 128.472 170.957 128.472 169.2C128.472 167.442 127.719 165.784 126.413 164.629C117.725 156.996 80.6617 131.684 2.2161 166.789C-0.74695 168.145 -0.747054 172.363 2.26622 173.669Z" fill="#EB0028"/>
<path d="M47.6155 54.497C79.5563 134.248 123.801 141.832 135.352 142.384C137.11 142.485 138.767 141.832 140.023 140.576C141.228 139.321 141.881 137.613 141.78 135.906C141.027 124.355 132.69 80.2605 52.4369 49.6255C49.3734 48.4705 46.4102 51.4837 47.6155 54.497Z" fill="#EB0028"/>
<path d="M164.029 2.26622C130.23 81.2643 156.144 117.876 163.929 126.463C165.084 127.769 166.741 128.472 168.499 128.472C170.257 128.472 171.914 127.719 173.069 126.413C180.703 117.725 206.014 80.6617 170.909 2.2161C169.554 -0.74695 165.335 -0.747054 164.029 2.26622Z" fill="#EB0028"/>
<path d="M283.203 47.6649C203.452 79.6056 195.868 123.851 195.316 135.401C195.215 137.159 195.868 138.816 197.124 140.072C198.379 141.277 200.087 141.93 201.794 141.83C213.345 141.076 257.439 132.74 288.074 52.4861C289.23 49.4226 286.216 46.4595 283.203 47.6649Z" fill="#EB0028"/>
<path d="M335.434 164.08C256.436 130.281 219.824 156.195 211.236 163.98C209.931 165.135 209.228 166.792 209.228 168.55C209.228 170.307 209.981 171.965 211.287 173.12C219.975 180.753 257.038 206.065 335.484 170.96C338.447 169.604 338.447 165.386 335.434 164.08Z" fill="#EB0028"/>
<path d="M290.031 283.256C258.09 203.504 213.845 195.921 202.294 195.368C200.537 195.268 198.879 195.921 197.624 197.176C196.419 198.432 195.766 200.14 195.866 201.847C196.619 213.398 204.956 257.492 285.21 288.127C288.273 289.282 291.236 286.269 290.031 283.256Z" fill="#EB0028"/>
</svg>
