<svg width="218" height="254" viewBox="0 0 218 254" fill="none" xmlns="http://www.w3.org/2000/svg">
<path d="M52.7642 99.7637V204.398C52.7642 204.398 1.67618 207.319 0.0373723 151.493C0.0373723 151.493 -3.27591 112.126 52.7642 99.7637Z" fill="#EB0028"/>
<path d="M59.0693 161.539V204.397H108.447C108.447 204.397 107.699 161.539 59.0693 161.539Z" fill="#EB0028"/>
<path d="M151.378 203.756L108.52 203.685L108.413 253.063C108.413 253.063 151.271 252.386 151.378 203.792V203.756Z" fill="#EB0028"/>
<path d="M158.396 104.002C198.404 105.071 211.229 72.7581 211.229 72.7581C225.801 36.8469 204.425 17.3593 192.098 9.52153C187.823 6.81393 183.12 4.92586 178.168 3.85708C120.311 -8.68336 108.056 46.3948 108.056 46.3948" stroke="#EB0028" stroke-width="3.56262" stroke-miterlimit="10"/>
<path d="M162.029 99.7637H59.0338V152.099H124.942C124.942 152.099 161.21 139.309 162.029 99.7637Z" fill="#EB0028"/>
</svg>
